#!OML:ASF F:\VICON\USERDATA\INSTALL\Justin_Nancy\Justin_Nancy.ASF
:FULLY-SPECIFIED
:DEGREES
34
root 0.118903 17.1817 -9.0133 8.83474 -3.89014 -3.38249
lowerback 11.7717 2.16977 5.07906
upperback -0.469339 3.79046 2.79618
thorax -6.97664 1.71596 -0.562506
lowerneck -21.9063 -5.05475 -9.68599
upperneck 10.3043 -5.15304 7.48153
head 7.14903 -2.18336 3.38566
rclavicle -2.3059e-014 -1.66979e-014
rhumerus -32.3412 11.8516 -91.5542
rradius 126.205
rwrist -15.5548
rhand -17.1378 32.4312
rfingers 7.12502
rthumb 9.10233 2.64766
lclavicle -2.3059e-014 -1.66979e-014
lhumerus -56.3099 -7.12587 96.6705
lradius 103.096
lwrist 22.422
lhand -13.8782 7.84424
lfingers 7.12502
lthumb 12.2466 37.4657
rfemur 1.39983 0.485718 29.9085
rtibia 33.3355
rfoot -7.40699 -4.75862
rtoes -26.1671
lfemur -45.7014 9.86255 -15.4449
ltibia 88.2653
lfoot -1.00254 -0.496063
ltoes -14.9511
35
root 0.11631 17.2669 -8.38118 8.87164 -3.58274 -3.70789
lowerback 11.3074 2.33713 5.56658
upperback -0.484602 4.04805 2.85239
thorax -6.69103 1.83355 -0.794829
lowerneck -22.2484 -5.26865 -9.86541
upperneck 10.6307 -5.3703 7.48496
head 7.33565 -2.28813 3.38435
rclavicle 1.0138e-014 2.06736e-014
rhumerus -32.4595 12.0601 -91.2758
rradius 128.052
rwrist -15.5353
rhand -17.3682 39.8666
rfingers 7.12502
rthumb 8.88009 10.0735
lclavicle 1.0138e-014 2.06736e-014
lhumerus -57.6973 -6.52729 96.6022
lradius 103.57
lwrist 22.3419
lhand -13.4336 7.68796
lfingers 7.12502
lthumb 12.6752 37.2833
rfemur 4.40346 0.245115 29.7283
rtibia 30.4869
rfoot -2.97758 -2.76431
rtoes -24.1313
lfemur -46.8801 9.45608 -15.73
ltibia 84.9276
lfoot -1.19097 -0.547203
ltoes -12.8379
36
root 0.112342 17.3561 -7.73379 8.89552 -3.17415 -3.64036
lowerback 10.6613 2.49227 5.69665
upperback -0.506668 4.21557 2.77746
thorax -6.3252 1.92142 -0.939208
lowerneck -22.2222 -5.49707 -10.0943
upperneck 10.6634 -5.63877 7.62898
head 7.37783 -2.41292 3.43307
rclavicle 1.03368e-014 4.29375e-014
rhumerus -32.5721 12.2348 -90.9641
rradius 129.808
rwrist -15.4768
rhand -14.777 36.9678
rfingers 7.12502
rthumb 11.3798 7.29658
lclavicle 1.03368e-014 4.29375e-014
lhumerus -58.9021 -5.91695 96.483
lradius 103.749
lwrist 22.3231
lhand -13.7776 7.67629
lfingers 7.12502
lthumb 12.3436 37.2919
rfemur 7.34041 0.00108153 29.1194
rtibia 27.3828
rfoot 2.98579 -1.33682
rtoes -20.8744
lfemur -47.6833 8.89567 -16.3828
ltibia 81.1688
lfoot -1.21171 -0.661867
ltoes -10.6231
37
root 0.118233 17.4367 -7.0747 8.82415 -2.85664 -3.59045
lowerback 10.1948 2.57844 5.96464
upperback -0.662819 4.32737 2.65658
thorax -6.19252 1.968 -1.20925
lowerneck -21.8069 -5.58923 -10.2253
upperneck 10.7128 -5.79356 7.76606
head 7.35061 -2.48863 3.48346
rclavicle -6.22196e-014 -2.3059e-014
rhumerus -32.908 12.9921 -90.8869
rradius 131.314
rwrist -14.0167
rhand -15.7915 36.4657
rfingers 7.12502
rthumb 10.4013 6.74295
lclavicle -6.22196e-014 -2.3059e-014
lhumerus -60.4995 -4.95765 96.1216
lradius 104.117
lwrist 22.5656
lhand -14.4733 7.63242
lfingers 7.12502
lthumb 11.6727 37.2873
rfemur 10.3597 0.0167499 28.4708
rtibia 24.0723
rfoot 11.0664 -1.07811
rtoes -19.4208
lfemur -48.1237 8.30151 -17.0455
ltibia 77.1474
lfoot -1.40036 -0.887315
ltoes -10.0239
38
root 0.120675 17.5033 -6.41667 8.63614 -2.58224 -3.69198
lowerback 9.81311 2.63949 6.29344
upperback -0.761874 4.4172 2.58403
thorax -6.04663 2.00382 -1.46047
lowerneck -21.5566 -5.61994 -10.2451
upperneck 10.8937 -5.88383 7.87632
head 7.38325 -2.52821 3.51486
rclavicle -2.04748e-014 1.59028e-014
rhumerus -33.2969 14.0348 -90.9038
rradius 132.877
rwrist -12.4004
rhand -16.3148 36.5186
rfingers 7.12502
rthumb 9.89641 6.77122
lclavicle -2.04748e-014 1.59028e-014
lhumerus -62.2916 -3.94649 95.5587
lradius 104.795
lwrist 23.0199
lhand -15.2818 7.4138
lfingers 7.12502
lthumb 10.8929 37.1113
rfemur 13.6053 0.488318 28.1642
rtibia 20.5871
rfoot 19.9122 -2.34247
rtoes -18.5318
lfemur -48.2368 7.83622 -17.4713
ltibia 72.927
lfoot -1.56365 -1.35008
ltoes -9.90251
